:version 1.10
:name ASF
:units
  mass 1
  length 1
  angle deg
:documentation
  ASF file generated by Kaydara
:root
  axis xyz
  order  tx ty tz rx ry rz
  position 0 0 0
  orientation 0 0 0
:bonedata
  begin
    id 1
    name RightUpLegDummy
    direction -0.65628 -0.754516 0.00165102
    length 4.76918
    axis 0 0 0 xyz
  end
  begin
    id 2
    name RightUpLeg
    direction -0.145584 -0.923362 0.355256
    length 17.9961
    axis -24.7611 -13.1006 1.78531 xyz
    dof rx ry rz
  end
  begin
    id 3
    name RightLeg
    direction 0.263379 0.172355 -0.949171
    length 13.3386
    axis 89.6202 -21.1929 12.3855 xyz
    dof rx ry rz
  end
  begin
    id 4
    name RightFoot
    direction 0.224283 -0.968777 -0.105675
    length 5.86697
    axis 56.995 -39.6905 17.3365 xyz
    dof rx ry rz
  end
  begin
    id 5
    name RightToes
    direction -0.0806345 -0.9037 0.420506
    length 4.75197
    axis 146.825 -39.7828 17.6019 xyz
    dof rx ry rz
  end
  begin
    id 6
    name SpineDummy
    direction -3.39852e-014 1 9.33296e-014
    length 8.13779
    axis 0 0 0 xyz
  end
  begin
    id 7
    name Spine
    direction -0.156609 0.733703 0.661176
    length 7.14978
    axis 41.2365 5.68757 17.0844 xyz
    dof rx ry rz
  end
  begin
    id 8
    name Spine1
    direction 0 0 0
    length 0
    axis 42.8809 47.8308 -3.36039 xyz
    dof rx ry rz
  end
  begin
    id 9
    name HEadDummy
    direction 0.546431 0.701947 0.456819
    length 3.55512
    axis 42.8809 47.8308 -3.36039 xyz
  end
  begin
    id 10
    name HEad
    direction 0.23444 0.828559 0.508457
    length 7.35827
    axis 51.1864 49.2662 27.4903 xyz
    dof rx ry rz
  end
  begin
    id 11
    name LeftShoulder1Dummy
    direction 0.431183 0.475873 -0.766568
    length 2.49352
    axis 42.8809 47.8308 -3.36039 xyz
  end
  begin
    id 12
    name LeftShoulder1
    direction 0.268187 -0.383402 -0.883786
    length 4.48604
    axis -119.517 0.106469 35.1736 xyz
    dof rx ry rz
  end
  begin
    id 13
    name LeftArm
    direction 0.380567 -0.703221 -0.600541
    length 10.1142
    axis -5.41825 36.2925 7.8293 xyz
    dof rx ry rz
  end
  begin
    id 14
    name LeftForeArm
    direction 0.541071 -0.732356 -0.413396
    length 9.39839
    axis 4.65387 33.7604 7.81644 xyz
    dof rx ry rz
  end
  begin
    id 15
    name LeftHand
    direction 0.847511 -0.389379 -0.360707
    length 3.66142
    axis 7.65593 21.1436 -24.6758 xyz
    dof rx ry rz
  end
  begin
    id 16
    name RightShoulderDummy
    direction -0.692546 0.541855 0.476208
    length 2.49352
    axis 42.8809 47.8308 -3.36039 xyz
  end
  begin
    id 17
    name RightShoulder
    direction -0.870808 -0.316653 0.376065
    length 4.48602
    axis 141.571 51.133 -100.254 xyz
    dof rx ry rz
  end
  begin
    id 18
    name RightArm
    direction 0.366897 -0.87275 0.322015
    length 10.1142
    axis 92.3258 71.2036 138.917 xyz
    dof rx ry rz
  end
  begin
    id 19
    name RightForeArm
    direction 0.702487 -0.694568 0.155197
    length 9.39835
    axis 153.863 41.5092 -176.604 xyz
    dof rx ry rz
  end
  begin
    id 20
    name RightHand
    direction 0.79502 -0.601276 0.0800636
    length 3.66142
    axis 154.247 4.59222 142.9 xyz
    dof rx ry rz
  end
  begin
    id 21
    name LeftUpLegDummy
    direction 0.65628 -0.754516 0.00165102
    length 4.76919
    axis 0 0 0 xyz
  end
  begin
    id 22
    name LeftUpLeg
    direction -0.1277 -0.689368 0.713067
    length 17.9961
    axis -48.3385 -17.8675 0.791927 xyz
    dof rx ry rz
  end
  begin
    id 23
    name LeftLeg
    direction 0.109849 -0.991246 -0.0732378
    length 13.3386
    axis -2.05791 -7.30784 1.72042 xyz
    dof rx ry rz
  end
  begin
    id 24
    name LeftFoot
    direction 0.0448355 -0.272614 0.961078
    length 5.86697
    axis -18.7733 -7.89606 10.2113 xyz
    dof rx ry rz
  end
  begin
    id 25
    name LeftToes
    direction -0.18506 0.293668 0.937823
    length 4.75197
    axis 71.2267 -7.89606 10.2113 xyz
    dof rx ry rz
  end
:hierarchy
  begin
    root RightUpLegDummy SpineDummy LeftUpLegDummy
    RightUpLegDummy RightUpLeg
    RightUpLeg RightLeg
    RightLeg RightFoot
    RightFoot RightToes
    SpineDummy Spine
    Spine Spine1
    Spine1 HEadDummy LeftShoulder1Dummy RightShoulderDummy
    HEadDummy HEad
    LeftShoulder1Dummy LeftShoulder1
    LeftShoulder1 LeftArm
    LeftArm LeftForeArm
    LeftForeArm LeftHand
    RightShoulderDummy RightShoulder
    RightShoulder RightArm
    RightArm RightForeArm
    RightForeArm RightHand
    LeftUpLegDummy LeftUpLeg
    LeftUpLeg LeftLeg
    LeftLeg LeftFoot
    LeftFoot LeftToes
  end

:SAMPLES-PER-SECOND 30
:FULLY-SPECIFIED
:DEGREES
179
root  12.1979 37.2018 6.73721 -85.8465 -73.5205 92.9556
RightUpLeg  7.86076 23.1956 7.63527
RightLeg  -67.4053 -36.1815 28.8771
RightFoot  12.2174 8.91041 -21.8107
RightToes  -1.27222e-014 -6.36111e-015 6.36111e-015
Spine  -20.7646 -14.6491 -9.28476
Spine1  3.53426 -11.8231 23.1395
HEad  3.33371 -55.3806 -15.1117
LeftShoulder1  6.36111e-015 -1.33558e-015 6.49777e-015
LeftArm  8.79675 -52.8159 -56.8794
LeftForeArm  -59.4589 -56.1565 52.1996
LeftHand  -3.44195 -8.95927 -16.4723
RightShoulder  -4.77083e-015 -6.36111e-015 -3.18055e-015
RightArm  29.1418 7.11677 25.3246
RightForeArm  -4.40335 10.0884 -12.3158
RightHand  0.0667621 -2.34348 2.31044
LeftUpLeg  12.2032 8.14853 1.60283
LeftLeg  11.8488 -16.3811 -4.18444
LeftFoot  9.05758 10.5835 -27.2138
LeftToes  1.27222e-014 -5.20697e-012 1.80337e-011
180
root  13.3263 36.3307 6.33849 -91.0156 -74.9362 99.7031
RightUpLeg  4.84255 26.0515 7.15393
RightLeg  -68.7828 -34.4402 28.361
RightFoot  9.75715 6.17209 -16.4035
RightToes  -1.27222e-014 -6.36111e-015 6.36111e-015
Spine  -21.5394 -13.6187 -8.51985
Spine1  4.08726 -11.1525 23.75
HEad  -2.56899 -55.7251 -12.4822
LeftShoulder1  6.36111e-015 -1.33558e-015 6.49777e-015
LeftArm  9.31558 -58.5317 -59.5895
LeftForeArm  -38.9632 -57.1594 35.014
LeftHand  -3.27895 -8.2752 -16.1838
RightShoulder  -4.77083e-015 -6.36111e-015 -3.18055e-015
RightArm  23.9814 4.00575 21.524
RightForeArm  -6.74632 3.14444 -10.5808
RightHand  1.16318 -4.18014 -2.6175
LeftUpLeg  19.2596 6.8458 3.44322
LeftLeg  10.6795 -11.761 -2.56192
LeftFoot  1.54369 8.94565 -28.3051
LeftToes  1.27222e-014 -5.20697e-012 1.80337e-011
181
root  14.3871 35.1996 5.86966 -96.0571 -76.8745 106.162
RightUpLeg  2.0187 25.3149 7.21791
RightLeg  -63.9941 -31.262 21.2287
RightFoot  1.77453 4.08124 -10.0746
RightToes  -1.27222e-014 -6.36111e-015 6.36111e-015
Spine  -22.479 -13.9328 -9.6163
Spine1  3.61251 -11.0957 29.4881
HEad  -9.71655 -54.2796 -9.29043
LeftShoulder1  6.36111e-015 -1.33558e-015 6.49777e-015
LeftArm  9.45049 -60.6353 -61.1011
LeftForeArm  -21.3298 -56.1918 21.3419
LeftHand  -2.99103 -7.10934 -15.5036
RightShoulder  -4.77083e-015 -6.36111e-015 -3.18055e-015
RightArm  20.9144 0.554345 18.7255
RightForeArm  -13.5082 -3.89223 -10.1792
RightHand  1.74615 -3.23951 -7.40366
LeftUpLeg  25.3745 5.81193 7.10651
LeftLeg  6.37542 -8.58691 -1.41717
LeftFoot  -11.7502 5.88633 -30.5123
LeftToes  1.27222e-014 -5.20697e-012 1.80337e-011
182
root  15.4769 34.4054 5.25954 -97.3416 -78.7346 107.595
RightUpLeg  0.810304 22.5037 8.59287
RightLeg  -60.5973 -28.5066 16.0944
RightFoot  -6.56616 5.07059 -9.40908
RightToes  -1.27222e-014 -6.36111e-015 6.36111e-015
Spine  -22.4475 -15.8184 -11.8315
Spine1  4.04154 -11.8198 38.3025
HEad  -19.9386 -52.2868 -2.85662
LeftShoulder1  6.36111e-015 -1.33558e-015 6.49777e-015
LeftArm  5.31545 -56.0693 -57.0329
LeftForeArm  -17.4362 -55.5436 18.29
LeftHand  -2.71519 -6.06947 -14.5668
RightShoulder  -4.77083e-015 -6.36111e-015 -3.18055e-015
RightArm  18.5086 -5.79499 14.8029
RightForeArm  -21.5695 -4.48742 -11.9989
RightHand  1.0865 0.0540721 -8.36595
LeftUpLeg  25.2536 4.03751 10.5104
LeftLeg  7.04193 -8.45354 -1.42574
LeftFoot  -17.8672 4.51662 -32.7337
LeftToes  1.27222e-014 -5.20697e-012 1.80337e-011
183
root  16.3409 34.334 4.61567 -113.787 -79.6355 123.121
RightUpLeg  1.53858 20.9799 11.6552
RightLeg  -62.246 -27.4335 15.9212
RightFoot  -9.83988 6.92525 -13.6302
RightToes  -1.27222e-014 -6.36111e-015 6.36111e-015
Spine  -22.1547 -17.0358 -13.2438
Spine1  7.01141 -12.2735 43.7043
HEad  -30.8971 -49.929 5.60964
LeftShoulder1  6.36111e-015 -1.33558e-015 6.49777e-015
LeftArm  0.848157 -45.013 -48.6349
LeftForeArm  -33.757 -53.8023 27.4706
LeftHand  -2.76813 -6.39093 -13.0531
RightShoulder  -4.77083e-015 -6.36111e-015 -3.18055e-015
RightArm  19.4575 -14.373 11.0321
RightForeArm  -30.5724 3.05319 -19.1178
RightHand  0.213298 2.5033 -5.96629
LeftUpLeg  20.2615 1.81094 12.5357
LeftLeg  15.4189 -2.93972 0.487991
LeftFoot  -8.77918 6.95991 -31.5791
LeftToes  1.27222e-014 -5.20697e-012 1.80337e-011
184
root  16.6408 34.7515 4.23771 -149.193 -75.9056 158.069
RightUpLeg  3.77435 22.0214 16.0066
RightLeg  -65.0906 -24.766 14.4468
RightFoot  -8.69327 8.42868 -18.5245
RightToes  -1.27222e-014 -6.36111e-015 6.36111e-015
Spine  -23.9047 -15.5081 -11.1821
Spine1  10.2355 -11.4842 43.0774
HEad  -35.3963 -47.1451 10.8873
LeftShoulder1  6.36111e-015 -1.33558e-015 6.49777e-015
LeftArm  1.97318 -30.2815 -39.6992
LeftForeArm  -59.8553 -48.9442 38.8893
LeftHand  -3.28861 -8.32869 -12.1246
RightShoulder  -4.77083e-015 -6.36111e-015 -3.18055e-015
RightArm  26.5953 -22.6975 8.00738
RightForeArm  -42.6848 12.1983 -32.6579
RightHand  -0.18071 3.00113 -3.26753
LeftUpLeg  16.2655 -1.42431 13.5014
LeftLeg  25.6848 1.58357 4.03314
LeftFoot  8.40257 9.0925 -23.8701
LeftToes  1.27222e-014 -5.20697e-012 1.80337e-011
185
root  16.4384 35.5424 4.02815 -166.867 -66.8483 176.572
RightUpLeg  6.46544 24.204 19.5525
RightLeg  -66.9684 -18.5677 6.67943
RightFoot  -4.90051 9.5869 -22.2991
RightToes  -1.27222e-014 -6.36111e-015 6.36111e-015
Spine  -26.5029 -13.2542 -7.85819
Spine1  10.1894 -10.6136 39.5
HEad  -30.1623 -44.3904 10.175
LeftShoulder1  6.36111e-015 -1.33558e-015 6.49777e-015
LeftArm  7.96773 -14.167 -31.3268
LeftForeArm  -82.3109 -44.7823 49.009
LeftHand  -3.6178 -9.53016 -12.676
RightShoulder  -4.77083e-015 -6.36111e-015 -3.18055e-015
RightArm  40.15 -28.376 2.71297
RightForeArm  -57.1306 15.9493 -48.56
RightHand  -0.167633 1.84868 -1.31198
LeftUpLeg  15.89 -4.02306 11.976
LeftLeg  33.0228 0.448717 4.40196
LeftFoot  15.9177 7.14029 -15.7513
LeftToes  1.27222e-014 -5.20697e-012 1.80337e-011
186
root  16.018 36.6548 3.69186 -172.167 -58.1001 -176.908
RightUpLeg  9.23754 25.1997 21.4398
RightLeg  -71.5612 -13.1533 -1.77947
RightFoot  1.85881 9.88661 -23.3514
RightToes  -1.27222e-014 -6.36111e-015 6.36111e-015
Spine  -28.9273 -12.1251 -6.24301
Spine1  8.34246 -10.4813 38.0384
HEad  -20.5138 -41.3085 6.28311
LeftShoulder1  6.36111e-015 -1.33558e-015 6.49777e-015
LeftArm  14.9238 -0.469325 -23.7232
LeftForeArm  -96.5004 -41.1999 60.3385
LeftHand  -3.49777 -9.11034 -13.4377
RightShoulder  -4.77083e-015 -6.36111e-015 -3.18055e-015
RightArm  56.7364 -28.4157 -7.47218
RightForeArm  -69.6456 14.4153 -60.7833
RightHand  0.0175218 -0.148435 0.107415
LeftUpLeg  16.4071 -4.67592 8.2406
LeftLeg  36.7934 -0.964817 3.66573
LeftFoot  11.6041 4.5135 -11.0647
LeftToes  1.27222e-014 -5.20697e-012 1.80337e-011
187
root  15.6264 37.7154 3.12788 -174.007 -50.886 -174.592
RightUpLeg  11.7817 23.0886 21.8331
RightLeg  -78.0794 -12.3158 -3.03215
RightFoot  9.50397 8.34912 -20.5587
RightToes  -1.27222e-014 -6.36111e-015 6.36111e-015
Spine  -31.6726 -12.1121 -7.05899
Spine1  8.41958 -10.1864 39.5002
HEad  -12.8081 -37.8797 3.3105
LeftShoulder1  6.36111e-015 -1.33558e-015 6.49777e-015
LeftArm  19.6695 7.84973 -16.3177
LeftForeArm  -102.684 -37.8694 70.6548
LeftHand  -3.10315 -7.62925 -13.3539
RightShoulder  -4.77083e-015 -6.36111e-015 -3.18055e-015
RightArm  69.009 -21.9565 -19.655
RightForeArm  -76.3039 12.2583 -68.2447
RightHand  0.264764 -2.14476 0.75935
LeftUpLeg  15.2364 -2.5415 6.29823
LeftLeg  37.1505 -1.20275 3.47602
LeftFoot  6.75183 4.06109 -11.2516
LeftToes  1.27222e-014 -5.20697e-012 1.80337e-011
188
root  15.3604 38.5285 2.42721 -174.727 -43.6222 -174.568
RightUpLeg  13.5157 17.2697 19.5984
RightLeg  -83.1901 -13.6476 2.83523
RightFoot  15.0764 6.14917 -17.2124
RightToes  -1.27222e-014 -6.36111e-015 6.36111e-015
Spine  -33.6841 -12.8235 -9.18847
Spine1  9.39923 -9.65316 40.1341
HEad  -7.46033 -34.7535 2.11874
LeftShoulder1  6.36111e-015 -1.33558e-015 6.49777e-015
LeftArm  22.5558 10.8525 -7.77077
LeftForeArm  -103.502 -36.6879 75.7179
LeftHand  -2.58944 -5.78577 -12.3914
RightShoulder  -4.77083e-015 -6.36111e-015 -3.18055e-015
RightArm  73.3649 -12.6387 -29.9388
RightForeArm  -76.3481 12.3014 -71.3447
RightHand  0.534263 -4.12541 1.11536
LeftUpLeg  12.9806 3.65284 7.17151
LeftLeg  33.0269 0.0154039 4.03106
LeftFoot  5.47791 4.28008 -12.2636
LeftToes  1.27222e-014 -5.20697e-012 1.80337e-011
189
root  15.1731 39.0117 1.80712 -175.475 -36.2401 -175.488
RightUpLeg  15.4936 11.7141 15.7235
RightLeg  -84.6822 -14.7927 7.95888
RightFoot  16.7497 5.40139 -16.2164
RightToes  -1.27222e-014 -6.36111e-015 6.36111e-015
Spine  -33.757 -13.3552 -10.7101
Spine1  8.4874 -9.31982 38.5548
HEad  -2.44651 -32.5862 1.42046
LeftShoulder1  6.36111e-015 -1.33558e-015 6.49777e-015
LeftArm  24.6506 9.56822 1.26585
LeftForeArm  -99.7578 -39.1759 73.8926
LeftHand  -1.96234 -3.79662 -10.4974
RightShoulder  -4.77083e-015 -6.36111e-015 -3.18055e-015
RightArm  71.7909 -3.86252 -37.1213
RightForeArm  -71.1958 14.8584 -69.1959
RightHand  0.55392 -5.68199 2.42269
LeftUpLeg  11.4512 11.433 8.94995
LeftLeg  23.114 1.22289 3.37549
LeftFoot  4.48394 4.12344 -12.1431
LeftToes  1.27222e-014 -5.20697e-012 1.80337e-011
190
root  14.962 39.1916 1.31335 -176.863 -29.9849 -175.687
RightUpLeg  18.9274 9.13695 12.8207
RightLeg  -84.4226 -14.6037 7.12378
RightFoot  17.0794 5.23839 -16.0031
RightToes  -1.27222e-014 -6.36111e-015 6.36111e-015
Spine  -33.3229 -12.7462 -10.3917
Spine1  6.80549 -9.22584 36.6374
HEad  2.06722 -31.5652 0.430603
LeftShoulder1  6.36111e-015 -1.33558e-015 6.49777e-015
LeftArm  25.2244 5.16808 8.23669
LeftForeArm  -89.673 -44.2703 64.5263
LeftHand  -1.2389 -1.87882 -7.8327
RightShoulder  -4.77083e-015 -6.36111e-015 -3.18055e-015
RightArm  66.7138 3.47439 -41.7392
RightForeArm  -60.6791 19.3819 -62.7789
RightHand  0.366866 -5.67736 3.47338
LeftUpLeg  11.4209 16.5228 10.8197
LeftLeg  7.67747 -0.280329 0.667194
LeftFoot  4.11668 4.43953 -13.202
LeftToes  1.27222e-014 -5.20697e-012 1.80337e-011
191
root  14.6715 39.1964 0.819261 -178.078 -24.461 -174.847
RightUpLeg  23.3722 9.32432 11.5882
RightLeg  -86.8059 -12.7281 1.23942
RightFoot  19.8427 3.86918 -14.3285
RightToes  -1.27222e-014 -6.36111e-015 6.36111e-015
Spine  -34.322 -11.1739 -9.18229
Spine1  6.69075 -8.9009 35.5719
HEad  5.22497 -31.1996 -1.08304
LeftShoulder1  6.36111e-015 -1.33558e-015 6.49777e-015
LeftArm  24.3635 -0.555801 12.173
LeftForeArm  -72.0539 -47.9222 47.7664
LeftHand  -0.823051 -1.06673 -5.58307
RightShoulder  -4.77083e-015 -6.36111e-015 -3.18055e-015
RightArm  59.8628 9.77117 -44.7364
RightForeArm  -44.9818 24.0088 -51.6336
RightHand  0.730294 -4.9311 0.734959
LeftUpLeg  12.1687 18.5267 12.9644
LeftLeg  -10.6754 -3.07064 -1.4182
LeftFoot  6.33533 4.62721 -12.9495
LeftToes  1.27222e-014 -5.20697e-012 1.80337e-011
